Simulation
nRows=27
nColumns=15
endheader
time  TH_x TH_y TH_z SC_y  SC_z  SC_x  AC_y  AC_z  AC_x  GH_y  GH_z  GH_yy  EL_x  PS_y
0.0  0.000000  0.000000  0.000000  -38.0520110299854  -0.7096674824504016  5.322903559826986  46.53567987584991  0.7298647132978273  -4.994343773161969  48.81063690022288  4.0956815134339974  -32.456436807560884  21.28034121385021  120.000000
0.03200000000000003  0.000000  0.000000  0.000000  -37.686415474027875  0.13208662519280776  5.096904378481307  45.95541214348945  1.316061209950644  -4.574436209717381  48.59978345155694  4.256462262787711  -32.63269718894605  21.09869693901921  120.000000
0.06400000000000006  0.000000  0.000000  0.000000  -37.32521814029192  0.6601724167557621  4.844040781163978  45.46453023841268  1.78885953619522  -4.344351685185603  48.40148346582851  4.324006206398993  -32.800403955965834  20.912022833043075  120.000000
0.09600000000000009  0.000000  0.000000  0.000000  -37.031727599370065  0.9718541561630815  4.60673335030801  45.076593114461346  2.11469333072259  -4.222063391805492  48.227862093992506  4.316538454658725  -32.96070033567826  20.761413633479847  120.000000
0.1280000000000001  0.000000  0.000000  0.000000  -36.83622171188313  1.096089264472333  4.420059215183748  44.81673026000861  2.2998077441207454  -4.185358578625347  48.071650371193606  4.2779158764021075  -33.13572754643928  20.642743565173692  120.000000
0.16000000000000014  0.000000  0.000000  0.000000  -36.74609417085867  1.0779102337164388  4.305307955552115  44.70493743386973  2.346610011932918  -4.201528107588636  47.93063900613866  4.259494281428828  -33.34267879580675  20.537404946391593  120.000000
0.19200000000000017  0.000000  0.000000  0.000000  -36.740408057945146  0.9658281347928289  4.277829961587128  44.733793455476494  2.2699505832499196  -4.243298140226842  47.81635063461327  4.291494061678486  -33.58304960818673  20.459324880411756  120.000000
0.2240000000000002  0.000000  0.000000  0.000000  -36.78314204937245  0.8007812615640757  4.350486912366306  44.88564469883751  2.08997192814909  -4.2980268384287035  47.75045106646383  4.3941430591076385  -33.84852387164623  20.427813890378562  120.000000
0.2560000000000002  0.000000  0.000000  0.000000  -36.83898967491062  0.61443512843623  4.533677019917985  45.13785511785079  1.8263860845928817  -4.359734192435204  47.75807820481992  4.5807475664395145  -34.13098341214594  20.455443499596683  120.000000
0.28800000000000026  0.000000  0.000000  0.000000  -36.88477426897522  0.42693366725601456  4.830321278327255  45.472036468196485  1.4972190159216712  -4.4264434532045565  47.86309121170001  4.869130261188185  -34.43105795923395  20.544876697584943  120.000000
0.3200000000000003  0.000000  0.000000  0.000000  -36.913553744054376  0.24943442792118617  5.2386665954008205  45.87342455254627  1.1176204988434808  -4.4955950870826635  48.08685831818498  5.279826562891071  -34.760330524170286  20.685642497263654  120.000000
0.3520000000000003  0.000000  0.000000  0.000000  -36.926461063771086  0.08961396264490244  5.74822567290819  46.32676721511478  0.7004940643069945  -4.5646544587783  48.44640575641527  5.835600906200276  -35.143375137147466  20.861633893354202  120.000000
0.38400000000000034  0.000000  0.000000  0.000000  -36.92570696248286  -0.04405324762990857  6.345263859784112  46.811798030582636  0.2569828044599067  -4.63446178108203  48.95672032633917  6.552717349862986  -35.61199762212255  21.06077141584887  120.000000
0.41600000000000037  0.000000  0.000000  0.000000  -36.90963780864213  -0.14060675266195463  7.0119253300292455  47.30117212116201  -0.20443340110129327  -4.708636198942609  49.630426383377255  7.441123449996334  -36.20280802248723  21.277092465437747  120.000000
0.4480000000000004  0.000000  0.000000  0.000000  -36.87430703023604  -0.1885950894319914  7.725368731548744  47.768494325504  -0.6798663375801174  -4.787764583488248  50.47208962314037  8.507779934710962  -36.958554731055806  21.504412005881516  120.000000
0.4800000000000004  0.000000  0.000000  0.000000  -36.81886201658606  -0.18148527561263728  8.461611645396859  48.194327529319324  -1.1729309763685012  -4.8667150131694275  51.47361548965798  9.76164005558242  -37.927415566129405  21.729087178693334  120.000000
0.5120000000000005  0.000000  0.000000  0.000000  -36.74349508185739  -0.11891958253096353  9.20391603646481  48.57195101955379  -1.6995539994994258  -4.9366363877274155  52.608961463343746  11.21197749919824  -39.159384715061314  21.928481862993852  120.000000
0.5440000000000005  0.000000  0.000000  0.000000  -36.64423035734702  -0.00206108816778817  9.950483645918622  48.902727583297754  -2.2841941787291353  -4.987705119332874  53.839442676919084  12.85666568484683  -40.68863949486733  22.07838455614327  120.000000
0.5760000000000005  0.000000  0.000000  0.000000  -36.516945134865246  0.16747315178035985  10.717886752011598  49.198396072538856  -2.945921262541215  -5.016478201983135  55.122204600882206  14.674616668833956  -42.51296748812585  22.16756299421309  120.000000
0.6080000000000005  0.000000  0.000000  0.000000  -36.36579963008906  0.38718131200906314  11.538699297255732  49.474984301982786  -3.683811438592041  -5.029154506515205  56.420750948111625  16.623651994907835  -44.57756333137863  22.207046276044647  120.000000
0.6400000000000006  0.000000  0.000000  0.000000  -36.204162363974376  0.6575313218128581  12.449564409723642  49.749977788007094  -4.474829134091281  -5.038234909325052  57.70802261190339  18.65008874840028  -46.781104317499825  22.224908096380066  120.000000
0.6720000000000006  0.000000  0.000000  0.000000  -36.05596781556693  0.9819750735531811  13.479023116456947  50.03890389235205  -5.278653784025877  -5.052734314211375  58.96615586395872  20.69929302936074  -48.99849055701988  22.25148572198773  120.000000
0.7040000000000006  0.000000  0.000000  0.000000  -35.95154136271667  1.3632052152912952  14.636970717340432  50.35381432234914  -6.051758820021348  -5.073370932722737  60.180214223512465  22.733468007851727  -51.119039482535854  22.30413409110026  120.000000
0.7360000000000007  0.000000  0.000000  0.000000  -35.91813733554983  1.8006522732475931  15.915076102603539  50.7027315488226  -6.762833873876303  -5.090753778163476  61.33405374380779  24.737541796505344  -53.078574434796664  22.378963501258802  120.000000
0.7680000000000007  0.000000  0.000000  0.000000  -35.972323489448414  2.288980258885156  17.285364669861004  51.08891560686142  -7.394830900090338  -5.085174222247661  62.4126258276584  26.718957680434027  -54.87005491639703  22.452957150610843  120.000000
0.8000000000000007  0.000000  0.000000  0.000000  -36.117151952762526  2.8209136861345536  18.703932989444088  51.51351354159122  -7.938293290319658  -5.027701893435885  63.406760734529065  28.697768877169608  -56.533189819324896  22.493799936598055  120.000000
0.8320000000000007  0.000000  0.000000  0.000000  -36.34361071539992  3.3903857687731027  20.128558612086486  51.9747097187033  -8.390799269276943  -4.89181321961344  64.31752193622758  30.69547316731366  -58.12973953211776  22.471610040798883  120.000000
